<svg width="1920" height="1080" viewBox="0 0 1920 1080" fill="none" xmlns="http://www.w3.org/2000/svg">
  <defs>
    <radialGradient id="starTrail" cx="50%" cy="50%" r="50%">
      <stop offset="0%" style="stop-color:#000000;stop-opacity:1" />
      <stop offset="70%" style="stop-color:#000000;stop-opacity:0.8" />
      <stop offset="100%" style="stop-color:#000000;stop-opacity:0.9" />
    </radialGradient>
    <filter id="glow">
      <feGaussianBlur stdDeviation="2" result="coloredBlur"/>
      <feMerge> 
        <feMergeNode in="coloredBlur"/>
        <feMergeNode in="SourceGraphic"/>
      </feMerge>
    </filter>
  </defs>
  
  <!-- Background -->
  <rect width="1920" height="1080" fill="url(#starTrail)"/>
  
  <!-- Star trails -->
  <g opacity="0.8" filter="url(#glow)">
    <!-- Main star trails - diagonal from top-left to bottom-right -->
    <path d="M0,100 Q960,540 1920,980" stroke="#ffffff" stroke-width="2" fill="none" opacity="0.7"/>
    <path d="M0,200 Q960,640 1920,1080" stroke="#ffffff" stroke-width="1.5" fill="none" opacity="0.6"/>
    <path d="M0,300 Q960,740 1920,1080" stroke="#ffffff" stroke-width="1" fill="none" opacity="0.5"/>
    
    <!-- Secondary trails -->
    <path d="M0,150 Q960,590 1920,1030" stroke="#e0e0ff" stroke-width="1" fill="none" opacity="0.4"/>
    <path d="M0,250 Q960,690 1920,1130" stroke="#f0f0ff" stroke-width="0.8" fill="none" opacity="0.3"/>
    
    <!-- Curved trails -->
    <path d="M0,400 Q960,540 1920,680" stroke="#ffffff" stroke-width="1.2" fill="none" opacity="0.6"/>
    <path d="M0,500 Q960,640 1920,780" stroke="#e8e8ff" stroke-width="1" fill="none" opacity="0.5"/>
    <path d="M0,600 Q960,740 1920,880" stroke="#f8f8ff" stroke-width="0.8" fill="none" opacity="0.4"/>
    
    <!-- Additional curved trails -->
    <path d="M0,350 Q960,490 1920,630" stroke="#ffffff" stroke-width="1.1" fill="none" opacity="0.5"/>
    <path d="M0,450 Q960,590 1920,730" stroke="#e4e4ff" stroke-width="0.9" fill="none" opacity="0.4"/>
    <path d="M0,550 Q960,690 1920,830" stroke="#f4f4ff" stroke-width="0.7" fill="none" opacity="0.3"/>
    
    <!-- Bright star points -->
    <circle cx="480" cy="360" r="2" fill="#ffffff" opacity="0.9"/>
    <circle cx="720" cy="480" r="1.5" fill="#ffffff" opacity="0.8"/>
    <circle cx="960" cy="600" r="2.5" fill="#ffffff" opacity="1"/>
    <circle cx="1200" cy="720" r="1.8" fill="#ffffff" opacity="0.9"/>
    <circle cx="1440" cy="840" r="1.2" fill="#ffffff" opacity="0.7"/>
    
    <!-- Additional bright stars -->
    <circle cx="240" cy="240" r="1" fill="#e8e8ff" opacity="0.6"/>
    <circle cx="600" cy="400" r="1.3" fill="#f0f0ff" opacity="0.7"/>
    <circle cx="1320" cy="640" r="1.1" fill="#e0e0ff" opacity="0.6"/>
    <circle cx="1680" cy="800" r="1.4" fill="#f8f8ff" opacity="0.8"/>
  </g>
</svg>
